<svg width="354" height="80" viewBox="0 0 354 80" fill="none" xmlns="http://www.w3.org/2000/svg">
<path d="M142.28 50.328C142.28 51.616 143.176 52.008 144.128 52.008C144.464 52.008 144.856 51.952 145.192 51.84V57.72C143.904 58.224 142.168 58.56 140.376 58.56C137.408 58.56 135.224 57.496 133.992 55.592C131.416 57.608 128.448 58.84 124.64 58.84C119.488 58.84 115.288 55.76 115.288 50.552C115.288 43.776 121.728 41.704 126.936 41.704C128.952 41.704 130.968 41.928 132.76 42.32V41.368C132.76 39.464 130.968 38.008 127.16 38.008C123.632 38.008 120.384 39.016 117.752 40.08V32.072C119.992 31.344 124.248 30.28 128.224 30.28C136.792 30.28 142.28 33.248 142.28 42.824V50.328ZM125.088 49.768C125.088 51.168 126.32 52.4 128.336 52.4C129.904 52.4 131.304 52.064 132.76 51V47.36C131.92 47.08 130.632 46.856 129.344 46.856C127.104 46.856 125.088 47.64 125.088 49.768ZM158.205 17.12V58H148.685V17.12H158.205ZM189.421 50.328C189.421 51.616 190.317 52.008 191.269 52.008C191.605 52.008 191.997 51.952 192.333 51.84V57.72C191.045 58.224 189.309 58.56 187.517 58.56C184.549 58.56 182.365 57.496 181.133 55.592C178.557 57.608 175.589 58.84 171.781 58.84C166.629 58.84 162.429 55.76 162.429 50.552C162.429 43.776 168.869 41.704 174.077 41.704C176.093 41.704 178.109 41.928 179.901 42.32V41.368C179.901 39.464 178.109 38.008 174.301 38.008C170.773 38.008 167.525 39.016 164.893 40.08V32.072C167.133 31.344 171.389 30.28 175.365 30.28C183.933 30.28 189.421 33.248 189.421 42.824V50.328ZM172.229 49.768C172.229 51.168 173.461 52.4 175.477 52.4C177.045 52.4 178.445 52.064 179.901 51V47.36C179.061 47.08 177.773 46.856 176.485 46.856C174.245 46.856 172.229 47.64 172.229 49.768ZM205.29 18.8V33.304C206.914 31.624 209.546 30.28 213.298 30.28C222.314 30.28 226.29 37.616 226.29 44.56C226.29 51.504 222.314 58.84 213.298 58.84C208.482 58.84 205.514 56.6 204.17 54.36V58H195.77V18.8H205.29ZM216.49 44.56C216.49 41.424 214.754 38.12 210.722 38.12C208.09 38.12 206.13 39.744 205.29 41.48V47.64C206.13 49.376 208.09 51 210.722 51C214.754 51 216.49 47.696 216.49 44.56ZM258.155 31.12V58H249.755V54.92C247.515 57.328 244.771 58.84 241.187 58.84C233.795 58.84 230.435 53.856 230.435 47.808V31.12H239.955V46.52C239.955 49.376 241.691 50.72 244.043 50.72C246.171 50.72 247.795 49.432 248.635 48.368V31.12H258.155ZM262.512 44.56C262.512 37.616 266.488 30.28 275.504 30.28C280.32 30.28 283.288 32.52 284.632 34.76V31.12H293.032V56.88C293.032 67.632 285.248 71.16 277.128 71.16C272.816 71.16 268.784 70.208 265.536 68.64V60.52C268.448 62.312 272.2 63.32 275.84 63.32C280.152 63.32 283.512 62.032 283.512 57.44V55.816C281.888 57.496 279.256 58.84 275.504 58.84C266.488 58.84 262.512 51.504 262.512 44.56ZM283.512 41.48C282.672 39.744 280.712 38.12 278.08 38.12C274.048 38.12 272.312 41.424 272.312 44.56C272.312 47.696 274.048 51 278.08 51C280.712 51 282.672 49.376 283.512 47.64V41.48ZM324.171 50.328C324.171 51.616 325.067 52.008 326.019 52.008C326.355 52.008 326.747 51.952 327.083 51.84V57.72C325.795 58.224 324.059 58.56 322.267 58.56C319.299 58.56 317.115 57.496 315.883 55.592C313.307 57.608 310.339 58.84 306.531 58.84C301.379 58.84 297.179 55.76 297.179 50.552C297.179 43.776 303.619 41.704 308.827 41.704C310.843 41.704 312.859 41.928 314.651 42.32V41.368C314.651 39.464 312.859 38.008 309.051 38.008C305.523 38.008 302.275 39.016 299.643 40.08V32.072C301.883 31.344 306.139 30.28 310.115 30.28C318.683 30.28 324.171 33.248 324.171 42.824V50.328ZM306.979 49.768C306.979 51.168 308.211 52.4 310.227 52.4C311.795 52.4 313.195 52.064 314.651 51V47.36C313.811 47.08 312.523 46.856 311.235 46.856C308.995 46.856 306.979 47.64 306.979 49.768Z" fill="white"/>
<mask id="mask0_1914_9726" style="mask-type:alpha" maskUnits="userSpaceOnUse" x="0" y="0" width="90" height="80">
<path d="M27.6676 12.6954C27.8951 12.8195 28.1232 12.9419 28.3523 13.0687C28.4856 13.1419 28.6206 13.2179 28.7538 13.2928C29.2153 13.5498 29.6795 13.8136 30.1447 14.0829C30.2405 14.1388 30.3381 14.1948 30.4366 14.251C30.6549 14.3789 30.8729 14.5097 31.0911 14.6386C31.251 14.7345 31.4122 14.8292 31.5734 14.9265C31.7858 15.0543 31.9986 15.1852 32.211 15.3143C32.3821 15.4185 32.5526 15.5236 32.7237 15.63C32.9322 15.7579 33.1394 15.8874 33.3477 16.0176C33.5353 16.1363 33.7269 16.2576 33.916 16.379C34.2353 16.5818 34.5525 16.7869 34.8735 16.9948C35.0954 17.1399 35.3193 17.2854 35.5416 17.4332C35.735 17.5597 35.9267 17.6905 36.1183 17.8184C36.3169 17.952 36.5173 18.0862 36.7158 18.2208C36.909 18.3504 37.1006 18.4836 37.2936 18.6154C37.502 18.7583 37.7091 18.9034 37.9159 19.0471C38.0994 19.1736 38.2829 19.3005 38.4664 19.43C38.7403 19.622 39.014 19.8175 39.2876 20.0149C39.5075 20.1721 39.7281 20.3291 39.9477 20.4893C40.2159 20.6839 40.4842 20.8798 40.7523 21.0772C40.9244 21.2035 41.097 21.3317 41.2691 21.4595C41.4985 21.6301 41.7263 21.8024 41.9571 21.9767C42.1307 22.1072 42.3045 22.2381 42.4781 22.3713C42.7226 22.5568 42.9672 22.7431 43.2104 22.9312C43.3644 23.0508 43.5204 23.1695 43.676 23.291C43.9889 23.5347 44.3027 23.7812 44.6166 24.0305C44.9277 23.784 45.2379 23.5388 45.5492 23.2973C45.713 23.1695 45.8784 23.0428 46.0439 22.915C46.2757 22.7362 46.5094 22.5565 46.7428 22.3788C46.9245 22.2402 47.1055 22.1029 47.2873 21.9658C47.5071 21.8007 47.7276 21.637 47.9459 21.4729C48.1265 21.3382 48.307 21.2035 48.4878 21.0703C48.7381 20.8863 48.9866 20.7049 49.237 20.5241C49.4925 20.3386 49.7495 20.1535 50.0055 19.9708C50.2554 19.7924 50.5081 19.6125 50.757 19.4365C50.95 19.3005 51.1403 19.1673 51.3337 19.0353C51.5324 18.8966 51.7296 18.7593 51.9287 18.6233C52.1273 18.4846 52.3275 18.3504 52.5261 18.213C52.7164 18.0852 52.9055 17.957 53.0956 17.8306C53.2972 17.696 53.4972 17.5597 53.6974 17.4278C53.896 17.2972 54.0946 17.168 54.2948 17.0375C54.649 16.8069 55.0032 16.5787 55.3565 16.3536C55.5301 16.2431 55.7051 16.1312 55.8771 16.022C56.094 15.8874 56.3078 15.7545 56.5221 15.6209C56.6856 15.5198 56.8484 15.4198 57.0109 15.3211C57.2292 15.1865 57.4472 15.0533 57.6668 14.921C57.8198 14.8305 57.9711 14.7396 58.1224 14.6505C58.349 14.5145 58.5754 14.3799 58.8023 14.248C58.8605 14.2134 58.9189 14.1802 58.9783 14.1452C59.4884 13.8496 59.9955 13.5614 60.5028 13.2789C60.6261 13.2097 60.7503 13.1402 60.8737 13.0711C61.1084 12.9433 61.3421 12.8164 61.5739 12.69C61.6866 12.63 61.7991 12.5699 61.9091 12.5103C56.0408 7.53511 50.2063 3.33304 44.616 0C39.0261 3.33304 33.1913 7.53511 27.3221 12.5103C27.4359 12.5716 27.5506 12.634 27.6676 12.6954Z" fill="#35388A"/>
<path d="M76.0657 26.8258C75.8281 26.9496 75.586 27.0778 75.3458 27.2056C75.2223 27.272 75.097 27.3388 74.9732 27.4052C74.7371 27.533 74.4993 27.6627 74.2605 27.7946C74.1426 27.8582 74.0241 27.925 73.9059 27.9918C73.3768 28.2861 72.8429 28.5875 72.3095 28.8992C72.2716 28.9218 72.2331 28.9432 72.1956 28.9656C71.9661 29.0993 71.737 29.2366 71.5052 29.3739C71.3578 29.4605 71.209 29.5496 71.0604 29.6391C70.8395 29.7723 70.6186 29.9055 70.399 30.0415C70.2378 30.1386 70.0766 30.2389 69.9167 30.3371C69.7001 30.4718 69.4834 30.6065 69.2653 30.7438C69.097 30.8489 68.9276 30.957 68.7594 31.0651C68.3938 31.2984 68.0283 31.533 67.6613 31.7715C67.471 31.8969 67.2805 32.0206 67.0889 32.1472C66.8873 32.2791 66.6844 32.4164 66.4802 32.5524C66.2924 32.6789 66.1066 32.8039 65.9188 32.9308C65.7173 33.0681 65.5157 33.2054 65.3157 33.3438C65.1184 33.4774 64.9225 33.6143 64.7264 33.7516C64.5334 33.8852 64.3402 34.0184 64.1472 34.1557C63.8969 34.3317 63.6467 34.5101 63.3967 34.6887C63.1396 34.8725 62.8842 35.058 62.6272 35.2428C62.3767 35.4242 62.1282 35.6054 61.878 35.789C61.6972 35.9226 61.5166 36.0569 61.336 36.1916C61.1164 36.3557 60.8968 36.5183 60.6775 36.6848C60.494 36.8221 60.3135 36.9596 60.1312 37.0978C59.9506 37.2352 59.7698 37.3749 59.5883 37.515C59.9576 37.8893 60.3289 38.2677 60.6982 38.6504C60.8134 38.7687 60.9287 38.8889 61.0441 39.0078C61.3317 39.3075 61.621 39.6076 61.9085 39.9114C62.0444 40.0541 62.182 40.1992 62.3181 40.3431C62.5988 40.6415 62.8809 40.9403 63.1616 41.243C63.2826 41.3736 63.4062 41.504 63.5286 41.6359C63.9258 42.0653 64.322 42.4954 64.7192 42.9302C65.1142 43.3659 65.5058 43.8017 65.8947 44.2374C66.0156 44.3732 66.1364 44.5105 66.2575 44.6452C66.5296 44.9531 66.8008 45.2595 67.0687 45.5674C67.2024 45.7194 67.3343 45.8712 67.4666 46.0232C67.7401 46.3362 68.0109 46.6495 68.2821 46.9637C68.393 47.0943 68.5042 47.2225 68.6155 47.3516C68.9882 47.7901 69.36 48.2272 69.727 48.6672C69.7813 48.7297 69.8312 48.7937 69.8843 48.8564C70.2011 49.2352 70.515 49.6119 70.8247 49.992C70.9473 50.1388 71.0678 50.288 71.1877 50.4344C71.4335 50.7358 71.6794 51.0383 71.9227 51.3408C72.0503 51.4967 72.1754 51.6526 72.3004 51.8097C72.4561 52.0043 72.6132 52.2004 72.7673 52.3946C72.7768 52.3892 72.7853 52.3827 72.7935 52.376C73.0423 52.1855 73.2898 51.9948 73.537 51.8054C73.7081 51.6761 73.8784 51.547 74.0495 51.4177C74.2832 51.2404 74.5179 51.0672 74.7513 50.8928C74.9195 50.7674 75.0865 50.6422 75.2558 50.5185C75.534 50.3131 75.8116 50.112 76.0894 49.9092C76.2896 49.7641 76.4886 49.6203 76.6897 49.4776C76.9761 49.2707 77.2635 49.067 77.5498 48.8658C77.7291 48.7395 77.907 48.6164 78.0847 48.4926C78.2973 48.3447 78.5101 48.1966 78.7238 48.0515C78.9129 47.9209 79.1007 47.7918 79.291 47.6636C79.4949 47.5248 79.6982 47.3866 79.905 47.2506C80.091 47.1241 80.2788 46.9974 80.465 46.875C80.704 46.7179 80.9402 46.5646 81.1777 46.4084C81.4764 46.2138 81.7738 46.0234 82.0713 45.834C82.2715 45.7062 82.4702 45.5782 82.6717 45.4528C82.8732 45.3263 83.0758 45.2009 83.2773 45.074C83.4536 44.965 83.6319 44.8558 83.8098 44.7475C84.017 44.6212 84.2237 44.4943 84.4319 44.3702C84.5987 44.2679 84.7684 44.1678 84.9351 44.0681C85.1475 43.9427 85.3603 43.8162 85.5713 43.6938C85.7019 43.6165 85.8322 43.5419 85.963 43.467C86.3884 43.2208 86.8122 42.9806 87.233 42.7447C87.3775 42.6651 87.5218 42.5836 87.6663 42.5032C87.8902 42.3808 88.1125 42.2595 88.3334 42.1412C88.4766 42.0638 88.618 41.9879 88.7598 41.912C88.9167 41.8283 89.074 41.7427 89.2308 41.6601C85.8456 37.1423 82.1288 32.6324 78.1074 28.2119C77.6003 27.6545 77.0917 27.1042 76.5829 26.5566C76.5123 26.5952 76.4414 26.6314 76.3691 26.6685C76.2678 26.7207 76.1662 26.7712 76.0636 26.8258H76.0657Z" fill="#00A0E3"/>
<path d="M44.8259 24.196C44.9384 24.2838 45.0497 24.3748 45.162 24.4652C45.4509 24.6972 45.743 24.929 46.0336 25.1647C46.1892 25.2925 46.3447 25.4207 46.5017 25.5476C46.7562 25.7551 47.0089 25.9645 47.263 26.1751C47.4186 26.3043 47.5755 26.4349 47.7298 26.5655C48.0104 26.7988 48.2886 27.0347 48.5676 27.2704C48.6913 27.3772 48.818 27.4812 48.9414 27.5863C49.3373 27.9234 49.7307 28.2644 50.1252 28.607C50.2352 28.7015 50.3419 28.7975 50.4505 28.8935C50.7492 29.1523 51.0455 29.4159 51.3424 29.6797C51.4885 29.809 51.6346 29.9385 51.7787 30.0691C52.0485 30.31 52.3164 30.5511 52.5847 30.7949C52.7294 30.9255 52.8726 31.055 53.0153 31.1869C53.3294 31.4708 53.6407 31.7599 53.9544 32.0501C54.0448 32.1329 54.135 32.217 54.2269 32.302C54.6267 32.6741 55.0283 33.0511 55.4288 33.431C55.5375 33.5359 55.6471 33.6414 55.7567 33.7452C56.0538 34.0293 56.3516 34.3145 56.6472 34.6023C56.7865 34.7355 56.9236 34.8698 57.0629 35.0034C57.3419 35.2764 57.6214 35.5511 57.9021 35.8271C58.0313 35.9565 58.162 36.0844 58.2914 36.2137C58.6417 36.5616 58.9917 36.9121 59.3431 37.265C59.3944 37.3186 59.446 37.3692 59.4987 37.4224C59.5276 37.4516 59.5598 37.4838 59.5891 37.5143C59.7699 37.3753 59.9519 37.2356 60.1323 37.0983C60.3142 36.9595 60.495 36.8222 60.6783 36.6853C60.8983 36.5201 61.1179 36.356 61.3371 36.1919C61.5177 36.0574 61.6983 35.9231 61.8791 35.7895C62.1293 35.6057 62.3778 35.4243 62.6282 35.2432C62.885 35.0581 63.1407 34.873 63.3977 34.6892C63.6478 34.5104 63.898 34.3318 64.1482 34.1562C64.3412 34.0189 64.5343 33.8855 64.7273 33.7519C64.9236 33.6146 65.1195 33.4777 65.3168 33.3441C65.5168 33.2055 65.7183 33.068 65.9199 32.9311C66.1074 32.8045 66.2935 32.6795 66.4812 32.5526C66.6851 32.4166 66.8884 32.2793 67.0899 32.1474C67.2816 32.0211 67.4717 31.8972 67.6624 31.7718C68.0294 31.5335 68.3948 31.2989 68.7603 31.0656C68.9283 30.9573 69.0976 30.8496 69.2662 30.7441C69.4844 30.6068 69.7011 30.4724 69.9178 30.3376C70.0776 30.2391 70.2388 30.1389 70.4 30.0419C70.6196 29.9059 70.8405 29.7727 71.0615 29.6393C71.2103 29.5498 71.3589 29.4607 71.5063 29.3742C71.7381 29.2369 71.9676 29.0996 72.1967 28.966C72.2345 28.9433 72.2731 28.9219 72.3105 28.8996C72.8453 28.588 73.3778 28.2866 73.907 27.9923C74.0251 27.9255 74.1433 27.8587 74.2616 27.7949C74.5002 27.663 74.7382 27.5335 74.9743 27.4057C75.0976 27.3392 75.2229 27.2724 75.3469 27.2058C75.5888 27.078 75.8291 26.9498 76.0668 26.8261C76.1696 26.7716 76.271 26.721 76.3723 26.6689C76.4446 26.6319 76.5154 26.5943 76.5847 26.5569C71.7557 21.374 66.8217 16.6721 61.9097 12.5117C61.8001 12.5717 61.6874 12.63 61.5745 12.6901C61.3427 12.8165 61.109 12.9433 60.8742 13.0712C60.7509 13.1407 60.6267 13.2102 60.5033 13.279C59.9961 13.5615 59.4888 13.8497 58.979 14.1454C58.9193 14.1803 58.8609 14.2135 58.8029 14.2481C58.5763 14.38 58.3502 14.5146 58.1232 14.6506C57.9717 14.7397 57.8204 14.8306 57.6674 14.9211C57.448 15.053 57.2297 15.1863 57.0117 15.3212C56.8486 15.4199 56.6864 15.5199 56.5227 15.621C56.3085 15.7546 56.0946 15.8878 55.8779 16.0221C55.7056 16.1313 55.5307 16.2432 55.3571 16.3537C55.004 16.5788 54.6498 16.807 54.2954 17.0376C54.0954 17.1681 53.8964 17.2973 53.6979 17.4279C53.4979 17.5598 53.2978 17.6957 53.0964 17.8307C52.9061 17.9568 52.717 18.0853 52.5267 18.2132C52.3281 18.3505 52.1277 18.4847 51.9292 18.6235C51.7306 18.7593 51.5333 18.8966 51.3343 19.0354C51.1409 19.1673 50.9508 19.3005 50.7578 19.4365C50.5089 19.6125 50.2558 19.7924 50.0061 19.9709C49.7502 20.1534 49.4932 20.3387 49.2376 20.5242C48.9873 20.7054 48.7386 20.8864 48.4884 21.0704C48.3078 21.2038 48.1274 21.3379 47.9464 21.473C47.7284 21.6371 47.5074 21.8004 47.2879 21.966C47.1061 22.1033 46.9251 22.2406 46.7434 22.3789C46.5098 22.5565 46.2765 22.7363 46.0445 22.9151C45.879 23.0429 45.7135 23.1696 45.55 23.2976C45.2385 23.5389 44.9285 23.7837 44.6173 24.0306C44.6866 24.0851 44.7562 24.1402 44.8259 24.196Z" fill="#3769B0"/>
<path d="M0.897606 42.1412C1.11997 42.2608 1.34093 42.3808 1.5633 42.5023C1.70789 42.5836 1.85354 42.6664 1.99955 42.7477C2.41777 42.9797 2.83599 43.218 3.25704 43.4605C3.39174 43.5392 3.52538 43.6138 3.66008 43.6938C3.87148 43.8162 4.08253 43.9431 4.2936 44.0681C4.46187 44.1682 4.6312 44.2679 4.79948 44.3702C5.007 44.4943 5.21382 44.6208 5.42099 44.7462C5.59881 44.8554 5.77663 44.9646 5.95587 45.0768C6.15738 45.2005 6.35749 45.3261 6.56041 45.4525C6.7605 45.578 6.96059 45.7058 7.1607 45.8337C7.45766 46.0242 7.75533 46.2134 8.05264 46.408C8.29021 46.5643 8.52777 46.7176 8.76676 46.8746C8.95166 46.997 9.13937 47.1237 9.32676 47.2489C9.53073 47.3862 9.73648 47.5248 9.94224 47.6632C10.13 47.7914 10.3173 47.9205 10.5075 48.05C10.7204 48.1966 10.9332 48.3444 11.1471 48.4926C11.3249 48.618 11.5041 48.7392 11.6805 48.8642C11.9694 49.0681 12.2571 49.2735 12.5477 49.48C12.7436 49.6214 12.9394 49.7628 13.1367 49.9066C13.4174 50.109 13.6967 50.3127 13.976 50.5196C14.1443 50.642 14.3111 50.7674 14.4791 50.8912C14.7127 51.0672 14.9475 51.2404 15.1808 51.4177C15.3519 51.5473 15.5227 51.6765 15.6952 51.8054C15.9413 51.9948 16.1898 52.1851 16.4383 52.376C16.4468 52.3823 16.4539 52.3892 16.4634 52.3946C16.6172 52.2013 16.7734 52.0071 16.9272 51.8125C17.0552 51.6538 17.1818 51.4951 17.3094 51.3364C17.5526 51.0366 17.7959 50.7365 18.0401 50.4381C18.161 50.2889 18.2834 50.1384 18.4071 49.9907C18.7143 49.6149 19.0254 49.2417 19.3379 48.8673C19.3938 48.8007 19.4492 48.7326 19.5047 48.6658C19.8717 48.2275 20.243 47.7903 20.6152 47.3544C20.7276 47.2225 20.8391 47.0932 20.9514 46.9628C21.2212 46.6495 21.4905 46.3362 21.7632 46.0245C21.8947 45.8712 22.0286 45.7191 22.163 45.5661C22.4313 45.2595 22.7007 44.9527 22.9719 44.648C23.0941 44.5105 23.2152 44.3732 23.3374 44.2374C23.7263 43.8017 24.1183 43.3645 24.5129 42.9302C24.9078 42.4958 25.3047 42.0666 25.701 41.6374C25.8261 41.504 25.9499 41.3708 26.0748 41.2389C26.353 40.9405 26.6319 40.6418 26.9101 40.3472C27.049 40.2004 27.1881 40.0525 27.327 39.9073C27.6119 39.6091 27.8955 39.3116 28.1814 39.0156C28.2996 38.8932 28.4175 38.7704 28.536 38.6463C28.904 38.2666 29.2753 37.888 29.6437 37.515C29.4588 37.3736 29.2766 37.2322 29.0945 37.0925C28.9168 36.9578 28.7389 36.8245 28.564 36.69C28.3358 36.5207 28.111 36.3512 27.8858 36.1834C27.7095 36.0528 27.5341 35.9224 27.3605 35.7927C27.0979 35.5996 26.8356 35.4104 26.5739 35.2212C26.3419 35.0506 26.1084 34.8828 25.8764 34.7163C25.611 34.5267 25.3454 34.3375 25.0803 34.1511C24.8925 34.0191 24.7051 33.8882 24.5189 33.7594C24.316 33.618 24.1115 33.477 23.9102 33.3397C23.7143 33.2037 23.517 33.069 23.3211 32.9371C23.1267 32.8035 22.9333 32.6733 22.7389 32.5425C22.5417 32.4119 22.3444 32.2787 22.1485 32.1496C21.9409 32.0123 21.7341 31.8776 21.5269 31.7431C21.1822 31.5189 20.8408 31.2978 20.4975 31.0804C20.3196 30.9661 20.139 30.8515 19.9611 30.7397C19.7487 30.6061 19.5359 30.4742 19.3248 30.344C19.158 30.2398 18.9925 30.1384 18.826 30.0374C18.6104 29.9042 18.394 29.7723 18.1769 29.6418C18.0239 29.5499 17.8683 29.458 17.7142 29.3671C17.489 29.2325 17.2656 29.0995 17.0404 28.9674C16.9778 28.93 16.9138 28.8938 16.8512 28.8582C16.3453 28.5652 15.8423 28.2783 15.342 28C15.2155 27.9304 15.0921 27.8603 14.9669 27.7909C14.7322 27.6629 14.4985 27.5351 14.2652 27.4084C14.1375 27.3401 14.0092 27.2711 13.8816 27.2028C13.644 27.0765 13.4065 26.9512 13.17 26.8272C13.0614 26.7712 12.9575 26.7166 12.8504 26.6631C12.7825 26.6272 12.7143 26.5925 12.6464 26.5566C12.1376 27.1042 11.6293 27.6545 11.1234 28.2119C7.10059 32.6324 3.38503 37.1423 0 41.6601C0.155552 41.7427 0.312518 41.8283 0.469484 41.9107C0.611249 41.9879 0.754428 42.0638 0.897606 42.1412Z" fill="#00A0E3"/>
<path d="M13.1694 26.8279C13.4056 26.952 13.6417 27.077 13.8811 27.2035C14.0087 27.2716 14.137 27.3408 14.2646 27.4091C14.4979 27.5354 14.7313 27.6636 14.9664 27.7914C15.0915 27.861 15.2149 27.9312 15.3415 28.0007C15.8417 28.2794 16.3448 28.566 16.8507 28.8588C16.9133 28.8949 16.9772 28.9308 17.0398 28.968C17.265 29.0999 17.4884 29.2333 17.7136 29.3678C17.8678 29.4586 18.0237 29.5503 18.1764 29.6424C18.3931 29.773 18.6098 29.9053 18.8255 30.0381C18.9924 30.1392 19.1578 30.2409 19.3243 30.3447C19.5358 30.4752 19.7482 30.6071 19.9606 30.7403C20.1385 30.8523 20.3191 30.9669 20.497 31.0811C20.8403 31.2984 21.1817 31.5196 21.5264 31.7436C21.7336 31.8783 21.9404 32.0128 22.1479 32.1501C22.3438 32.2794 22.5411 32.4127 22.7384 32.5433C22.9328 32.6737 23.1262 32.8043 23.3205 32.9379C23.5165 33.0698 23.7137 33.2045 23.9097 33.3403C24.111 33.4776 24.3155 33.6188 24.5184 33.7602C24.7046 33.8906 24.892 34.0199 25.0797 34.1518C25.3453 34.3382 25.6107 34.5274 25.8758 34.717C26.1078 34.8835 26.3414 35.0513 26.5734 35.2218C26.8347 35.4113 27.0973 35.6006 27.36 35.7935C27.5336 35.923 27.7089 36.0532 27.8853 36.1842C28.1105 36.352 28.3353 36.5211 28.5634 36.6906C28.7384 36.8253 28.9163 36.9585 29.094 37.0932C29.2761 37.2329 29.4596 37.3743 29.6445 37.5146C29.6724 37.485 29.7013 37.4545 29.7308 37.4268C29.789 37.3667 29.8503 37.3068 29.9085 37.2467C30.2501 36.9016 30.5934 36.5578 30.9356 36.219C31.0716 36.0845 31.2064 35.9514 31.341 35.8166C31.6151 35.5473 31.8877 35.2807 32.1608 35.013C32.3041 34.8733 32.4473 34.7345 32.5914 34.5946C32.8807 34.3148 33.1695 34.0374 33.4597 33.7619C33.5768 33.6499 33.6934 33.5377 33.81 33.4272C34.2061 33.05 34.6038 32.6768 34.9997 32.3066C35.1008 32.2147 35.2026 32.1211 35.304 32.0277C35.6053 31.7468 35.9071 31.4694 36.2097 31.1937C36.3587 31.0564 36.5085 30.9204 36.6584 30.7847C36.9197 30.5488 37.1796 30.3127 37.4411 30.0798C37.5924 29.9453 37.7466 29.8065 37.8997 29.6716C38.1856 29.4169 38.4706 29.1667 38.7571 28.9161C38.875 28.8121 38.9945 28.7057 39.114 28.6019C39.5033 28.2634 39.8936 27.9278 40.2843 27.5931C40.4203 27.4772 40.5564 27.3626 40.694 27.2467C40.9595 27.0214 41.2249 26.7959 41.4914 26.5736C41.6569 26.4363 41.8206 26.3003 41.9847 26.1646C42.228 25.9609 42.4726 25.7606 42.7172 25.5594C42.8809 25.4262 43.0435 25.2915 43.2089 25.1583C43.484 24.9354 43.7604 24.7131 44.0359 24.493C44.161 24.392 44.2877 24.2893 44.4137 24.1905C44.482 24.136 44.5486 24.0828 44.6166 24.0305C44.3028 23.7814 43.9889 23.5349 43.676 23.291C43.5205 23.1697 43.3649 23.051 43.2103 22.9313C42.9672 22.7431 42.7224 22.557 42.4782 22.3715C42.3046 22.2383 42.1308 22.1077 41.9572 21.9767C41.7265 21.8026 41.4986 21.6303 41.2691 21.4597C41.0971 21.3319 40.9244 21.2041 40.7524 21.0772C40.4843 20.88 40.216 20.6843 39.9477 20.4893C39.7282 20.3293 39.5076 20.1723 39.2876 20.0149C39.0139 19.8177 38.7404 19.622 38.4663 19.4301C38.283 19.3005 38.0995 19.1741 37.916 19.0473C37.7088 18.9034 37.502 18.7583 37.2937 18.6156C37.1003 18.4837 36.9088 18.3505 36.7156 18.2209C36.517 18.0863 36.317 17.9521 36.1182 17.8185C35.9267 17.6907 35.7351 17.5598 35.5417 17.4333C35.3194 17.2858 35.0955 17.1404 34.8734 16.9949C34.5526 16.787 34.2354 16.5819 33.9161 16.3791C33.727 16.2577 33.5353 16.1367 33.3478 16.0177C33.1394 15.8871 32.9322 15.758 32.7237 15.6301C32.5526 15.5237 32.3821 15.4182 32.211 15.3145C31.9986 15.1849 31.7858 15.0544 31.5732 14.9266C31.412 14.8296 31.2508 14.7347 31.0912 14.6387C30.873 14.5095 30.6549 14.379 30.4367 14.2511C30.3382 14.1949 30.241 14.1389 30.1448 14.083C29.6792 13.8137 29.215 13.55 28.7539 13.2929C28.6207 13.218 28.4856 13.142 28.3524 13.0688C28.1229 12.9434 27.8952 12.8196 27.6676 12.6955C27.5505 12.6331 27.4368 12.5717 27.3229 12.5117C22.4123 16.6724 17.4778 21.3743 12.6465 26.557C12.7158 26.5914 12.7826 26.6275 12.8505 26.6634C12.9576 26.717 13.0612 26.7719 13.1694 26.8279Z" fill="#3769B0"/>
<path d="M58.0073 64.6163C57.8828 64.4656 57.7575 64.3164 57.6305 64.1672C57.3202 63.7988 57.0068 63.4288 56.6907 63.0601C56.6328 62.9928 56.5751 62.9238 56.5167 62.8554C56.1456 62.4218 55.769 61.9884 55.3896 61.5552C55.2783 61.4259 55.1623 61.2961 55.0478 61.1681C54.7756 60.8575 54.5018 60.5469 54.2239 60.2367C54.0899 60.086 53.9558 59.9355 53.8204 59.7836C53.5464 59.4796 53.2715 59.1759 52.9947 58.8719C52.872 58.7375 52.7506 58.6014 52.6263 58.4666C52.2312 58.0346 51.8333 57.6011 51.4326 57.171C51.0306 56.7403 50.6285 56.3132 50.2235 55.8892C50.0994 55.7571 49.9738 55.6279 49.8499 55.4956C49.5662 55.1981 49.2812 54.9025 48.9958 54.6076C48.8577 54.4638 48.718 54.3195 48.5768 54.1772C48.286 53.8786 47.9953 53.5826 47.7049 53.288C47.585 53.1667 47.4676 53.0464 47.348 52.926C46.9426 52.5177 46.538 52.1123 46.1328 51.7121C46.0749 51.6579 46.0201 51.6038 45.9652 51.5483C45.6138 51.2009 45.2608 50.8573 44.908 50.5137C44.8107 50.42 44.7133 50.3261 44.6156 50.2324C44.517 50.3276 44.4183 50.4228 44.3192 50.5177C43.9723 50.8532 43.6266 51.1931 43.2795 51.5349C43.2202 51.5944 43.1582 51.6538 43.0975 51.7134C42.6921 52.1136 42.2889 52.5177 41.8841 52.9247C41.7627 53.0461 41.6424 53.1691 41.5228 53.2917C41.2321 53.5851 40.9445 53.8786 40.6551 54.1744C40.5141 54.3195 40.3744 54.4638 40.2347 54.6091C39.9497 54.9038 39.6661 55.1981 39.3826 55.4956C39.2583 55.6264 39.1312 55.7571 39.007 55.8892C38.6035 56.3132 38.2015 56.74 37.7993 57.171C37.3972 57.6014 37.0005 58.0346 36.6042 58.4666C36.4801 58.6014 36.3587 58.7375 36.2374 58.871C35.9594 59.1763 35.6844 59.4813 35.4091 59.7865C35.2751 59.9357 35.1427 60.0851 35.01 60.233C34.7307 60.5462 34.4523 60.8604 34.1773 61.1738C34.066 61.3005 33.9543 61.4272 33.8432 61.5539C33.4637 61.9884 33.0868 62.4218 32.713 62.8591C32.661 62.9201 32.6086 62.9806 32.555 63.0415C32.2333 63.4194 31.9142 63.7945 31.5969 64.1722C31.4741 64.3161 31.3542 64.4627 31.2315 64.6069C31.1665 64.6859 31.1028 64.7639 31.0368 64.8421C31.1271 64.9291 31.2171 65.0165 31.3075 65.1036C31.6632 65.4485 32.0188 65.7943 32.373 66.1447C32.4265 66.1976 32.4801 66.2489 32.5339 66.3018C32.9403 66.7035 33.3453 67.1092 33.7517 67.5187C33.8687 67.6376 33.987 67.7562 34.1044 67.8766C34.3968 68.1714 34.6885 68.4699 34.9818 68.7696C35.1201 68.9111 35.2588 69.0537 35.3965 69.1962C35.6831 69.492 35.9681 69.7895 36.2531 70.0883C36.3788 70.2203 36.5015 70.3483 36.6268 70.4791C37.0289 70.9048 37.4325 71.3312 37.8335 71.7622C38.2369 72.1926 38.6323 72.6249 39.0286 73.0568C39.1513 73.193 39.2754 73.3291 39.3997 73.4652C39.6747 73.7691 39.9501 74.0716 40.2221 74.3768C40.3575 74.526 40.4918 74.6767 40.6258 74.8275C40.9021 75.1378 41.1775 75.4496 41.4525 75.76C41.5667 75.8893 41.678 76.0191 41.7911 76.1471C42.1705 76.5807 42.5475 77.0139 42.9182 77.4486C42.9762 77.5145 44.5584 79.6738 44.6159 79.7409C44.3025 79.3685 44.9337 80.111 44.6159 79.7409C44.4918 79.593 44.7412 79.8888 44.6159 79.7409C44.5466 79.6579 44.6853 79.8242 44.6159 79.7409C44.5452 79.8239 44.6837 79.6579 44.6159 79.7409C44.7387 79.593 44.5111 79.8637 44.6352 79.7169C44.9502 79.3431 44.1512 80.2833 44.4701 79.9108C44.5251 79.846 44.5798 79.7815 44.6352 79.7169C45.0079 79.2822 47.0598 76.5803 47.4392 76.1468C47.5523 76.0188 47.6649 75.8893 47.778 75.7596C48.0546 75.4494 48.3284 75.1374 48.6063 74.8272C48.7387 74.6767 48.8744 74.5256 49.0097 74.3764C49.2824 74.0712 49.5558 73.7687 49.8323 73.465C49.9551 73.3287 50.0794 73.1926 50.2017 73.0565C50.598 72.6246 50.9965 72.1926 51.3968 71.7618C51.7978 71.3312 52.2009 70.9044 52.6045 70.4789C52.729 70.3482 52.8529 70.22 52.9772 70.0879C53.2622 69.7892 53.5486 69.492 53.8336 69.1959C53.9719 69.0533 54.113 68.9105 54.2501 68.7693C54.5424 68.4696 54.8341 68.1708 55.1264 67.8763C55.2448 67.756 55.3618 67.6373 55.479 67.5183C55.8854 67.1089 56.2922 66.7033 56.6982 66.3016C56.7502 66.2485 56.8039 66.1974 56.8561 66.1443C57.2133 65.7944 57.5673 65.4481 57.923 65.1032C58.0134 65.0162 58.1054 64.9289 58.1941 64.8419C58.132 64.7664 58.0709 64.6906 58.0073 64.6163Z" fill="#80CFF4"/>
</mask>
<g mask="url(#mask0_1914_9726)">
<rect width="90" height="80" fill="white"/>
</g>
</svg>
