<svg width="339" height="69" viewBox="0 0 339 69" fill="none" xmlns="http://www.w3.org/2000/svg">
<path d="M107.22 25.472C107.22 26.484 107.924 26.792 108.672 26.792C108.936 26.792 109.244 26.748 109.508 26.66V31.28C108.496 31.676 107.132 31.94 105.724 31.94C103.392 31.94 101.676 31.104 100.708 29.608C98.684 31.192 96.352 32.16 93.36 32.16C89.312 32.16 86.012 29.74 86.012 25.648C86.012 20.324 91.072 18.696 95.164 18.696C96.748 18.696 98.332 18.872 99.74 19.18V18.432C99.74 16.936 98.332 15.792 95.34 15.792C92.568 15.792 90.016 16.584 87.948 17.42V11.128C89.708 10.556 93.052 9.72 96.176 9.72C102.908 9.72 107.22 12.052 107.22 19.576V25.472ZM93.712 25.032C93.712 26.132 94.68 27.1 96.264 27.1C97.496 27.1 98.596 26.836 99.74 26V23.14C99.08 22.92 98.068 22.744 97.056 22.744C95.296 22.744 93.712 23.36 93.712 25.032ZM122.848 16.1C122.32 24.9 120.604 31.984 114.62 31.984C113.52 31.984 112.244 31.764 110.836 31.28V25.34C111.276 25.516 111.672 25.604 112.024 25.604C115.192 25.604 115.632 18.828 116.028 10.38H134.068V31.5H126.588V16.1H122.848ZM158.525 25.472C158.525 26.484 159.229 26.792 159.977 26.792C160.241 26.792 160.549 26.748 160.813 26.66V31.28C159.801 31.676 158.437 31.94 157.029 31.94C154.697 31.94 152.981 31.104 152.013 29.608C149.989 31.192 147.657 32.16 144.665 32.16C140.617 32.16 137.317 29.74 137.317 25.648C137.317 20.324 142.377 18.696 146.469 18.696C148.053 18.696 149.637 18.872 151.045 19.18V18.432C151.045 16.936 149.637 15.792 146.645 15.792C143.873 15.792 141.321 16.584 139.253 17.42V11.128C141.013 10.556 144.357 9.72 147.481 9.72C154.213 9.72 158.525 12.052 158.525 19.576V25.472ZM145.017 25.032C145.017 26.132 145.985 27.1 147.569 27.1C148.801 27.1 149.901 26.836 151.045 26V23.14C150.385 22.92 149.373 22.744 148.361 22.744C146.601 22.744 145.017 23.36 145.017 25.032ZM186.032 22.04C186.032 28.86 180.928 32.16 174.592 32.16C168.476 32.16 163.152 28.86 163.152 19.18C163.152 11.392 165.836 7.3 169.62 4.924C175.692 1.14 181.324 2.812 184.184 0.0399985V6.64C181.456 9.104 177.76 7.828 174.108 9.632C171.952 10.688 170.852 13.152 170.852 14.868C172.084 13.328 174.064 11.92 177.232 11.92C182.248 11.92 186.032 15.44 186.032 22.04ZM170.852 22.04C170.852 23.536 171.292 26.44 174.592 26.44C177.892 26.44 178.332 23.536 178.332 22.04C178.332 20.544 177.892 17.64 174.592 17.64C171.292 17.64 170.852 20.544 170.852 22.04ZM203.357 10.38H211.057L202.213 33.7C199.793 40.036 196.141 41.752 192.533 41.752C191.213 41.752 189.893 41.488 188.661 41.18V35.02C189.585 35.24 190.553 35.372 191.521 35.372C193.369 35.372 194.909 34.316 195.921 32.028L185.977 10.38H193.897L199.045 22.964L203.357 10.38ZM213.615 31.5V10.38H230.071V16.54H221.095V31.5H213.615ZM252.497 25.472C252.497 26.484 253.201 26.792 253.949 26.792C254.213 26.792 254.521 26.748 254.785 26.66V31.28C253.773 31.676 252.409 31.94 251.001 31.94C248.669 31.94 246.953 31.104 245.985 29.608C243.961 31.192 241.629 32.16 238.637 32.16C234.589 32.16 231.289 29.74 231.289 25.648C231.289 20.324 236.349 18.696 240.441 18.696C242.025 18.696 243.609 18.872 245.017 19.18V18.432C245.017 16.936 243.609 15.792 240.617 15.792C237.845 15.792 235.293 16.584 233.225 17.42V11.128C234.985 10.556 238.329 9.72 241.453 9.72C248.185 9.72 252.497 12.052 252.497 19.576V25.472ZM238.989 25.032C238.989 26.132 239.957 27.1 241.541 27.1C242.773 27.1 243.873 26.836 245.017 26V23.14C244.357 22.92 243.345 22.744 242.333 22.744C240.573 22.744 238.989 23.36 238.989 25.032Z" fill="black"/>
<path d="M21.7046 13.4737C21.8831 13.5761 22.0621 13.6771 22.2418 13.7817C22.3463 13.8421 22.4522 13.9048 22.5568 13.9666C22.9188 14.1786 23.283 14.3962 23.6479 14.6184C23.7231 14.6645 23.7996 14.7107 23.8769 14.7571C24.0481 14.8626 24.2191 14.9705 24.3903 15.0768C24.5157 15.156 24.6422 15.2341 24.7686 15.3143C24.9353 15.4198 25.1022 15.5278 25.2688 15.6343C25.4031 15.7202 25.5368 15.8069 25.671 15.8948C25.8346 16.0002 25.9971 16.1071 26.1606 16.2145C26.3077 16.3124 26.4581 16.4125 26.6064 16.5127C26.8569 16.68 27.1057 16.8492 27.3576 17.0207C27.5317 17.1404 27.7073 17.2604 27.8817 17.3824C28.0334 17.4867 28.1837 17.5947 28.3341 17.7001C28.4899 17.8104 28.6471 17.9211 28.8028 18.0322C28.9543 18.139 29.1047 18.249 29.2561 18.3577C29.4195 18.4756 29.5821 18.5953 29.7443 18.7138C29.8882 18.8182 30.0322 18.9229 30.1761 19.0297C30.391 19.1881 30.6057 19.3494 30.8203 19.5123C30.9929 19.642 31.1659 19.7715 31.3381 19.9037C31.5486 20.0642 31.7591 20.2258 31.9694 20.3887C32.1043 20.4929 32.2398 20.5987 32.3748 20.7041C32.5548 20.8449 32.7334 20.987 32.9145 21.1308C33.0507 21.2384 33.1871 21.3465 33.3233 21.4564C33.515 21.6094 33.7069 21.763 33.8977 21.9182C34.0185 22.0169 34.1409 22.1148 34.2629 22.2151C34.5084 22.4161 34.7546 22.6195 35.0008 22.8252C35.2449 22.6218 35.4882 22.4195 35.7325 22.2203C35.8609 22.1148 35.9907 22.0103 36.1205 21.9049C36.3024 21.7574 36.4857 21.6091 36.6688 21.4625C36.8114 21.3482 36.9534 21.2349 37.096 21.1218C37.2684 20.9856 37.4414 20.8505 37.6126 20.7152C37.7543 20.604 37.8959 20.4929 38.0378 20.383C38.2341 20.2312 38.429 20.0816 38.6255 19.9324C38.8259 19.7793 39.0275 19.6266 39.2284 19.4759C39.4244 19.3287 39.6227 19.1803 39.8179 19.0351C39.9693 18.9229 40.1186 18.813 40.2703 18.7042C40.4261 18.5897 40.5809 18.4764 40.737 18.3642C40.8929 18.2498 41.0499 18.139 41.2057 18.0258C41.355 17.9203 41.5034 17.8146 41.6525 17.7102C41.8106 17.5992 41.9675 17.4867 42.1246 17.3779C42.2804 17.2702 42.4362 17.1636 42.5932 17.0559C42.8711 16.8657 43.149 16.6775 43.4261 16.4917C43.5623 16.4005 43.6996 16.3082 43.8345 16.2181C44.0047 16.1071 44.1724 15.9974 44.3405 15.8872C44.4688 15.8039 44.5965 15.7213 44.724 15.6399C44.8952 15.5289 45.0662 15.4189 45.2385 15.3099C45.3586 15.2352 45.4772 15.1602 45.5959 15.0866C45.7737 14.9745 45.9513 14.8634 46.1293 14.7546C46.175 14.7261 46.2208 14.6986 46.2673 14.6698C46.6676 14.4259 47.0653 14.1881 47.4633 13.9551C47.5601 13.898 47.6574 13.8407 47.7542 13.7836C47.9384 13.6782 48.1217 13.5736 48.3036 13.4692C48.392 13.4197 48.4803 13.3702 48.5665 13.321C43.963 9.21646 39.3859 5.74976 35.0004 3C30.6152 5.74976 26.0379 9.21646 21.4336 13.321C21.5229 13.3716 21.6129 13.4231 21.7046 13.4737Z" fill="#35388A"/>
<path d="M59.6724 25.1313C59.486 25.2333 59.296 25.3391 59.1076 25.4445C59.0107 25.4993 58.9124 25.5544 58.8153 25.6092C58.6301 25.7147 58.4436 25.8217 58.2562 25.9305C58.1637 25.983 58.0707 26.0381 57.9781 26.0932C57.5629 26.336 57.1441 26.5847 56.7257 26.8418C56.696 26.8605 56.6657 26.8781 56.6363 26.8965C56.4563 27.0069 56.2766 27.1202 56.0948 27.2335C55.9791 27.3048 55.8624 27.3783 55.7458 27.4522C55.5725 27.5621 55.3992 27.672 55.2269 27.7842C55.1005 27.8643 54.974 27.947 54.8486 28.0281C54.6786 28.1392 54.5086 28.2503 54.3376 28.3636C54.2055 28.4503 54.0727 28.5395 53.9407 28.6287C53.6539 28.8211 53.3672 29.0147 53.0793 29.2115C52.93 29.3149 52.7806 29.417 52.6302 29.5214C52.4721 29.6302 52.3129 29.7434 52.1527 29.8556C52.0054 29.96 51.8596 30.0632 51.7123 30.1678C51.5542 30.2811 51.3961 30.3944 51.2392 30.5086C51.0844 30.6188 50.9307 30.7318 50.7769 30.845C50.6255 30.9552 50.4739 31.0651 50.3225 31.1784C50.1262 31.3236 49.9299 31.4708 49.7337 31.6182C49.5321 31.7698 49.3317 31.9228 49.1301 32.0752C48.9336 32.2249 48.7387 32.3744 48.5424 32.5259C48.4005 32.6361 48.2589 32.7469 48.1172 32.858C47.9449 32.9934 47.7727 33.1276 47.6006 33.2649C47.4566 33.3782 47.3151 33.4916 47.172 33.6057C47.0304 33.7189 46.8885 33.8342 46.7461 33.9498C47.0358 34.2586 47.3271 34.5708 47.6168 34.8865C47.7072 34.9842 47.7976 35.0833 47.8882 35.1814C48.1138 35.4287 48.3407 35.6762 48.5662 35.9269C48.6729 36.0446 48.7808 36.1643 48.8876 36.283C49.1078 36.5292 49.3291 36.7757 49.5493 37.0254C49.6443 37.1331 49.7412 37.2407 49.8372 37.3496C50.1489 37.7038 50.4596 38.0587 50.7713 38.4174C51.0811 38.7769 51.3883 39.1363 51.6934 39.4958C51.7882 39.6078 51.883 39.7211 51.978 39.8322C52.1915 40.0863 52.4042 40.3391 52.6144 40.5931C52.7192 40.7185 52.8227 40.8437 52.9265 40.9691C53.1411 41.2273 53.3535 41.4858 53.5662 41.745C53.6533 41.8528 53.7405 41.9585 53.8278 42.065C54.1201 42.4268 54.4119 42.7873 54.6998 43.1503C54.7424 43.2019 54.7815 43.2547 54.8232 43.3064C55.0717 43.6189 55.3179 43.9298 55.5609 44.2433C55.6571 44.3644 55.7516 44.4875 55.8457 44.6083C56.0385 44.857 56.2314 45.1066 56.4222 45.3561C56.5224 45.4848 56.6205 45.6134 56.7185 45.7429C56.8407 45.9035 56.964 46.0652 57.0848 46.2255C57.0923 46.221 57.099 46.2157 57.1053 46.2101C57.3006 46.053 57.4948 45.8956 57.6886 45.7394C57.8228 45.6327 57.9565 45.5262 58.0907 45.4195C58.274 45.2732 58.4582 45.1303 58.6412 44.9865C58.7732 44.8831 58.9042 44.7798 59.037 44.6777C59.2553 44.5083 59.473 44.3423 59.6909 44.175C59.848 44.0553 60.0041 43.9367 60.1619 43.8189C60.3865 43.6483 60.612 43.4802 60.8367 43.3143C60.9773 43.2101 61.1168 43.1084 61.2562 43.0064C61.423 42.8844 61.5899 42.7622 61.7576 42.6425C61.906 42.5347 62.0533 42.4282 62.2026 42.3224C62.3625 42.2079 62.522 42.0939 62.6842 41.9817C62.8301 41.8773 62.9774 41.7728 63.1235 41.6718C63.311 41.5422 63.4964 41.4158 63.6826 41.2868C63.917 41.1263 64.1502 40.9693 64.3837 40.813C64.5407 40.7076 64.6965 40.602 64.8547 40.4985C65.0128 40.3942 65.1716 40.2907 65.3297 40.186C65.4681 40.0961 65.6079 40.006 65.7475 39.9167C65.91 39.8124 66.0722 39.7078 66.2355 39.6054C66.3664 39.521 66.4995 39.4384 66.6302 39.3561C66.7969 39.2527 66.9638 39.1483 67.1294 39.0473C67.2318 38.9836 67.334 38.9221 67.4366 38.8602C67.7703 38.6571 68.1028 38.459 68.4329 38.2644C68.5463 38.1987 68.6595 38.1314 68.7728 38.0651C68.9484 37.9641 69.1228 37.8641 69.2962 37.7664C69.4085 37.7026 69.5194 37.64 69.6306 37.5773C69.7537 37.5083 69.8772 37.4377 70.0001 37.3695C67.3445 33.6424 64.4287 29.9216 61.274 26.2748C60.8762 25.8149 60.4772 25.3609 60.0781 24.9092C60.0227 24.941 59.9671 24.9709 59.9104 25.0014C59.8309 25.0446 59.7512 25.0862 59.6707 25.1313H59.6724Z" fill="#00ADEF"/>
<path d="M35.1651 22.961C35.2533 23.0335 35.3407 23.1086 35.4288 23.1831C35.6554 23.3745 35.8845 23.5658 36.1125 23.7603C36.2345 23.8657 36.3566 23.9715 36.4797 24.0761C36.6793 24.2473 36.8776 24.4201 37.077 24.5939C37.199 24.7004 37.3221 24.8081 37.4431 24.9159C37.6633 25.1083 37.8815 25.303 38.1003 25.4974C38.1974 25.5855 38.2968 25.6713 38.3936 25.7581C38.7042 26.0362 39.0128 26.3175 39.3223 26.6001C39.4086 26.6781 39.4923 26.7573 39.5775 26.8365C39.8118 27.05 40.0442 27.2675 40.2772 27.4851C40.3918 27.5918 40.5064 27.6986 40.6194 27.8064C40.8311 28.0051 41.0413 28.2041 41.2517 28.4051C41.3652 28.5129 41.4775 28.6197 41.5895 28.7285C41.8359 28.9628 42.0801 29.2013 42.3262 29.4407C42.3971 29.509 42.4679 29.5784 42.54 29.6485C42.8536 29.9555 43.1686 30.2665 43.4829 30.5799C43.5681 30.6665 43.6541 30.7535 43.7401 30.8391C43.9732 31.0735 44.2068 31.3088 44.4387 31.5463C44.548 31.6562 44.6555 31.767 44.7648 31.8772C44.9836 32.1024 45.2029 32.3291 45.4231 32.5567C45.5245 32.6635 45.627 32.769 45.7285 32.8756C46.0033 33.1627 46.2779 33.4518 46.5536 33.743C46.5938 33.7872 46.6343 33.8289 46.6757 33.8728C46.6983 33.8969 46.7236 33.9235 46.7466 33.9487C46.8884 33.834 47.0311 33.7187 47.1727 33.6055C47.3154 33.491 47.4572 33.3777 47.601 33.2647C47.7736 33.1284 47.9459 32.993 48.1178 32.8577C48.2595 32.7467 48.4012 32.6359 48.543 32.5257C48.7393 32.374 48.9342 32.2244 49.1307 32.075C49.3322 31.9223 49.5327 31.7696 49.7343 31.6179C49.9305 31.4704 50.1268 31.3231 50.3231 31.1782C50.4745 31.0649 50.6259 30.9549 50.7774 30.8447C50.9314 30.7314 51.085 30.6184 51.2398 30.5082C51.3967 30.3939 51.5548 30.2804 51.7129 30.1675C51.8601 30.0631 52.006 29.96 52.1533 29.8553C52.3132 29.7431 52.4727 29.6298 52.6308 29.521C52.7812 29.4168 52.9303 29.3145 53.0799 29.2111C53.3678 29.0145 53.6545 28.8209 53.9412 28.6285C54.073 28.5391 54.2058 28.4503 54.3381 28.3632C54.5093 28.25 54.6793 28.1391 54.8492 28.0279C54.9746 27.9467 55.1011 27.8639 55.2275 27.784C55.3998 27.6718 55.5731 27.5619 55.7464 27.4518C55.8632 27.378 55.9797 27.3045 56.0954 27.2331C56.2772 27.1198 56.4573 27.0065 56.637 26.8963C56.6666 26.8776 56.6969 26.86 56.7263 26.8415C57.1458 26.5844 57.5636 26.3358 57.9787 26.093C58.0714 26.0379 58.164 25.9828 58.2569 25.9301C58.444 25.8213 58.6308 25.7145 58.816 25.609C58.9127 25.5542 59.011 25.4991 59.1083 25.4442C59.298 25.3387 59.4866 25.233 59.673 25.1309C59.7536 25.0859 59.8332 25.0442 59.9127 25.0012C59.9694 24.9707 60.025 24.9397 60.0793 24.9088C56.2911 20.6329 52.4204 16.7538 48.567 13.3215C48.481 13.371 48.3926 13.4192 48.3041 13.4687C48.1222 13.573 47.9389 13.6776 47.7547 13.7831C47.6579 13.8404 47.5605 13.8978 47.4638 13.9546C47.0658 14.1876 46.6679 14.4253 46.268 14.6693C46.2211 14.6981 46.1753 14.7255 46.1298 14.754C45.9521 14.8628 45.7746 14.9739 45.5966 15.0861C45.4777 15.1596 45.359 15.2346 45.239 15.3093C45.0669 15.4181 44.8957 15.5281 44.7246 15.6394C44.5966 15.7208 44.4694 15.8033 44.341 15.8867C44.173 15.9969 44.0051 16.1068 43.8352 16.2176C43.7 16.3077 43.5628 16.4 43.4266 16.4912C43.1496 16.6769 42.8718 16.8652 42.5937 17.0554C42.4368 17.1631 42.2807 17.2697 42.125 17.3774C41.9681 17.4862 41.8111 17.5983 41.6531 17.7097C41.5039 17.8137 41.3555 17.9198 41.2062 18.0252C41.0504 18.1385 40.8932 18.2493 40.7375 18.3638C40.5817 18.4758 40.4269 18.5891 40.2708 18.7036C40.1191 18.8124 39.9699 18.9223 39.8185 19.0345C39.6233 19.1797 39.4247 19.3281 39.2289 19.4753C39.0281 19.6259 38.8265 19.7788 38.6259 19.9318C38.4296 20.0813 38.2346 20.2306 38.0383 20.3824C37.8966 20.4925 37.7551 20.6032 37.6131 20.7146C37.442 20.85 37.2687 20.9847 37.0964 21.1213C36.9539 21.2346 36.8119 21.3479 36.6693 21.4619C36.4861 21.6085 36.303 21.7568 36.121 21.9043C35.9912 22.0097 35.8614 22.1143 35.7331 22.2199C35.4887 22.4189 35.2456 22.6209 35.0015 22.8246C35.0558 22.8696 35.1104 22.915 35.1651 22.961Z" fill="#3769B0"/>
<path d="M0.704157 37.7664C0.8786 37.8651 1.05194 37.9641 1.22638 38.0644C1.33981 38.1314 1.45407 38.1997 1.56861 38.2668C1.8967 38.4582 2.22479 38.6548 2.55509 38.8548C2.66076 38.9198 2.7656 38.9813 2.87127 39.0473C3.03711 39.1483 3.20267 39.253 3.36825 39.3561C3.50026 39.4387 3.6331 39.521 3.76511 39.6054C3.9279 39.7078 4.09015 39.8121 4.25267 39.9156C4.39217 40.0057 4.53167 40.0958 4.67228 40.1883C4.83036 40.2904 4.98734 40.394 5.14653 40.4982C5.3035 40.6018 5.46046 40.7073 5.61745 40.8127C5.85041 40.9699 6.08392 41.126 6.31716 41.2865C6.50352 41.4155 6.68989 41.5419 6.87737 41.6715C7.02242 41.7725 7.16968 41.877 7.31668 41.9803C7.47669 42.0936 7.6381 42.2079 7.79952 42.3221C7.94679 42.4279 8.09377 42.5344 8.24298 42.6412C8.40993 42.7622 8.5769 42.884 8.74468 43.0064C8.88418 43.1098 9.02479 43.2097 9.16318 43.3129C9.38977 43.4811 9.61552 43.6506 9.84349 43.8209C9.99712 43.9376 10.1508 44.0542 10.3055 44.1729C10.5257 44.3399 10.7448 44.508 10.9639 44.6786C11.0959 44.7796 11.2268 44.8831 11.3586 44.9851C11.5419 45.1303 11.726 45.2732 11.9091 45.4195C12.0433 45.5265 12.1773 45.633 12.3126 45.7394C12.5056 45.8956 12.7006 46.0527 12.8956 46.2101C12.9022 46.2154 12.9078 46.221 12.9153 46.2255C13.0359 46.066 13.1585 45.9058 13.2791 45.7452C13.3795 45.6143 13.4788 45.4834 13.5789 45.3524C13.7697 45.1052 13.9605 44.8576 14.1522 44.6114C14.247 44.4883 14.343 44.3641 14.4401 44.2423C14.6811 43.9322 14.9251 43.6243 15.1703 43.3155C15.2141 43.2606 15.2576 43.2044 15.3011 43.1493C15.589 42.7877 15.8803 42.427 16.1723 42.0673C16.2604 41.9585 16.3479 41.8518 16.436 41.7442C16.6477 41.4858 16.8589 41.2273 17.0729 40.9702C17.176 40.8437 17.281 40.7182 17.3865 40.592C17.597 40.3391 17.8083 40.086 18.0211 39.8345C18.1169 39.7211 18.2119 39.6078 18.3078 39.4958C18.6129 39.1363 18.9204 38.7756 19.2299 38.4174C19.5398 38.059 19.8511 37.7049 20.162 37.3508C20.2602 37.2407 20.3572 37.1308 20.4552 37.022C20.6735 36.7758 20.8923 36.5295 21.1105 36.2863C21.2195 36.1652 21.3286 36.0432 21.4375 35.9235C21.6611 35.6775 21.8835 35.432 22.1079 35.1878C22.2005 35.0868 22.293 34.9855 22.386 34.8832C22.6747 34.5699 22.966 34.2575 23.2549 33.9498C23.1099 33.8331 22.967 33.7165 22.8241 33.6012C22.6847 33.4901 22.5452 33.3802 22.4079 33.2692C22.229 33.1296 22.0526 32.9897 21.8759 32.8513C21.7376 32.7435 21.6 32.6359 21.4639 32.529C21.2578 32.3696 21.0521 32.2135 20.8468 32.0574C20.6648 31.9167 20.4816 31.7782 20.2996 31.6409C20.0914 31.4845 19.8831 31.3284 19.675 31.1746C19.5277 31.0657 19.3807 30.9577 19.2347 30.8515C19.0755 30.7348 18.9151 30.6185 18.7571 30.5052C18.6034 30.393 18.4487 30.2819 18.295 30.1731C18.1425 30.0629 17.9908 29.9554 17.8383 29.8475C17.6835 29.7398 17.5288 29.6299 17.3751 29.5233C17.2123 29.4101 17.05 29.2989 16.8875 29.188C16.6171 29.003 16.3493 28.8207 16.0799 28.6412C15.9404 28.547 15.7987 28.4525 15.6592 28.3602C15.4925 28.25 15.3256 28.1412 15.16 28.0337C15.0291 27.9478 14.8993 27.8641 14.7687 27.7808C14.5995 27.6709 14.4298 27.5621 14.2595 27.4545C14.1394 27.3787 14.0174 27.3028 13.8965 27.2278C13.7198 27.1168 13.5445 27.0071 13.3679 26.8981C13.3188 26.8672 13.2686 26.8373 13.2195 26.808C12.8226 26.5662 12.428 26.3296 12.0356 26.0999C11.9363 26.0425 11.8395 25.9847 11.7413 25.9274C11.5572 25.8218 11.3738 25.7164 11.1908 25.6118C11.0907 25.5555 10.99 25.4986 10.8899 25.4422C10.7035 25.338 10.5171 25.2347 10.3316 25.1324C10.2465 25.0862 10.1649 25.0412 10.0809 24.997C10.0276 24.9674 9.97411 24.9388 9.92087 24.9092C9.52178 25.3609 9.12297 25.8149 8.7261 26.2748C5.57029 29.9216 2.6555 33.6424 0 37.3695C0.122028 37.4377 0.245165 37.5083 0.368302 37.5763C0.479514 37.64 0.591835 37.7026 0.704157 37.7664Z" fill="#00ADEF"/>
<path d="M10.3311 25.1326C10.5163 25.235 10.7016 25.3382 10.8893 25.4425C10.9895 25.4987 11.0901 25.5558 11.1903 25.6121C11.3733 25.7163 11.5563 25.8221 11.7408 25.9275C11.8389 25.985 11.9357 26.0428 12.035 26.1002C12.4274 26.3301 12.8221 26.5665 13.219 26.8081C13.2681 26.8379 13.3183 26.8675 13.3674 26.8982C13.544 27.007 13.7193 27.1171 13.8959 27.2281C14.0169 27.303 14.1392 27.3786 14.259 27.4546C14.429 27.5624 14.599 27.6715 14.7682 27.7811C14.8991 27.8644 15.0289 27.9484 15.1595 28.034C15.3254 28.1416 15.492 28.2504 15.6587 28.3603C15.7982 28.4527 15.9399 28.5473 16.0794 28.6415C16.3488 28.8208 16.6166 29.0033 16.887 29.1881C17.0495 29.2992 17.2117 29.4102 17.3746 29.5235C17.5283 29.6301 17.683 29.74 17.8378 29.8478C17.9903 29.9554 18.142 30.0631 18.2945 30.1733C18.4482 30.2822 18.6029 30.3933 18.7566 30.5053C18.9146 30.6186 19.075 30.7351 19.2341 30.8518C19.3802 30.9594 19.5272 31.066 19.6745 31.1749C19.8829 31.3286 20.091 31.4847 20.299 31.6412C20.481 31.7785 20.6643 31.917 20.8463 32.0576C21.0512 32.214 21.2573 32.3701 21.4633 32.5292C21.5995 32.6361 21.7371 32.7435 21.8754 32.8516C22.0521 32.99 22.2285 33.1295 22.4074 33.2694C22.5447 33.3805 22.6842 33.4904 22.8236 33.6015C22.9665 33.7168 23.1105 33.8334 23.2555 33.9492C23.2774 33.9248 23.3001 33.8996 23.3232 33.8767C23.3689 33.8271 23.4169 33.7777 23.4626 33.7281C23.7306 33.4434 23.9999 33.1598 24.2684 32.8803C24.375 32.7693 24.4808 32.6595 24.5864 32.5483C24.8014 32.3262 25.0152 32.1062 25.2295 31.8854C25.3419 31.7701 25.4542 31.6556 25.5673 31.5402C25.7942 31.3093 26.0208 31.0805 26.2484 30.8531C26.3404 30.7607 26.4318 30.6682 26.5233 30.577C26.834 30.2659 27.146 29.958 27.4566 29.6526C27.5358 29.5767 27.6157 29.4995 27.6953 29.4225C27.9316 29.1907 28.1684 28.9619 28.4058 28.7344C28.5227 28.6211 28.6402 28.5089 28.7578 28.397C28.9628 28.2024 29.1667 28.0076 29.3718 27.8155C29.4905 27.7045 29.6115 27.59 29.7316 27.4787C29.9559 27.2686 30.1794 27.0621 30.4042 26.8554C30.4967 26.7696 30.5904 26.6818 30.6842 26.5961C30.9896 26.3169 31.2958 26.0401 31.6022 25.7639C31.7089 25.6683 31.8157 25.5738 31.9236 25.4781C32.132 25.2923 32.3401 25.1062 32.5492 24.9228C32.679 24.8095 32.8075 24.6973 32.9362 24.5854C33.127 24.4174 33.3189 24.2521 33.5108 24.0861C33.6392 23.9762 33.7668 23.8651 33.8966 23.7552C34.1123 23.5713 34.3292 23.3879 34.5453 23.2064C34.6434 23.123 34.7428 23.0383 34.8417 22.9568C34.8953 22.9118 34.9475 22.8679 35.0009 22.8248C34.7547 22.6193 34.5085 22.4159 34.263 22.2147C34.141 22.1146 34.0189 22.0167 33.8976 21.918C33.707 21.7626 33.5149 21.6092 33.3233 21.4561C33.1871 21.3462 33.0508 21.2385 32.9146 21.1304C32.7336 20.9868 32.5548 20.8446 32.3748 20.7039C32.2398 20.5984 32.1044 20.493 31.9694 20.3883C31.7591 20.2256 31.5487 20.0641 31.3382 19.9033C31.166 19.7713 30.9929 19.6417 30.8204 19.5119C30.6056 19.3492 30.3911 19.1877 30.1761 19.0295C30.0323 18.9225 29.8883 18.8183 29.7443 18.7136C29.5818 18.5949 29.4196 18.4752 29.2562 18.3575C29.1044 18.2487 28.9543 18.1387 28.8027 18.0319C28.6469 17.9208 28.49 17.8101 28.334 17.6998C28.1838 17.5944 28.0334 17.4864 27.8817 17.3821C27.7073 17.2604 27.5317 17.1404 27.3575 17.0204C27.1058 16.8489 26.857 16.6797 26.6065 16.5124C26.4581 16.4122 26.3078 16.3124 26.1606 16.2142C25.9972 16.1065 25.8347 15.9999 25.6711 15.8945C25.5369 15.8066 25.4031 15.7196 25.2689 15.634C25.1023 15.5272 24.9353 15.4195 24.7686 15.314C24.6421 15.234 24.5156 15.1557 24.3904 15.0765C24.2192 14.97 24.0482 14.8623 23.877 14.7568C23.7997 14.7104 23.7234 14.6642 23.6479 14.6181C23.2827 14.3959 22.9186 14.1783 22.5569 13.9663C22.4523 13.9045 22.3464 13.8418 22.2419 13.7814C22.0618 13.6779 21.8832 13.5758 21.7047 13.4734C21.6128 13.4219 21.5236 13.3713 21.4343 13.3218C17.582 16.7544 13.711 20.6334 9.9209 24.9092C9.97526 24.9375 10.0277 24.9673 10.0809 24.9969C10.1649 25.0412 10.2462 25.0864 10.3311 25.1326Z" fill="#3769B0"/>
<path d="M45.5055 56.3086C45.4079 56.1843 45.3096 56.0612 45.2099 55.9381C44.9665 55.6341 44.7207 55.3289 44.4727 55.0247C44.4272 54.9692 44.382 54.9123 44.3362 54.8559C44.0451 54.4981 43.7496 54.1406 43.452 53.7832C43.3647 53.6765 43.2737 53.5694 43.1839 53.4638C42.9703 53.2076 42.7555 52.9514 42.5375 52.6954C42.4324 52.5711 42.3272 52.447 42.221 52.3216C42.0061 52.0708 41.7903 51.8203 41.5732 51.5695C41.4769 51.4586 41.3818 51.3463 41.2843 51.2351C40.9743 50.8787 40.6621 50.521 40.3478 50.1662C40.0324 49.8109 39.717 49.4585 39.3993 49.1087C39.3019 48.9998 39.2034 48.8931 39.1062 48.784C38.8836 48.5386 38.66 48.2947 38.4361 48.0514C38.3278 47.9327 38.2182 47.8138 38.1074 47.6963C37.8793 47.45 37.6513 47.2058 37.4235 46.9628C37.3294 46.8627 37.2373 46.7634 37.1435 46.6641C36.8255 46.3272 36.508 45.9928 36.1902 45.6626C36.1448 45.6179 36.1018 45.5733 36.0587 45.5275C35.783 45.2409 35.5061 44.9574 35.2293 44.6739C35.153 44.5966 35.0766 44.5192 35 44.4419C34.9226 44.5204 34.8452 44.5989 34.7674 44.6773C34.4953 44.954 34.2241 45.2345 33.9518 45.5164C33.9053 45.5655 33.8566 45.6145 33.809 45.6637C33.491 45.9939 33.1747 46.3272 32.8571 46.663C32.7619 46.7631 32.6675 46.8646 32.5737 46.9658C32.3456 47.2079 32.12 47.45 31.893 47.694C31.7824 47.8138 31.6728 47.9327 31.5633 48.0526C31.3397 48.2958 31.1171 48.5386 30.8948 48.784C30.7973 48.8919 30.6976 48.9998 30.6001 49.1087C30.2836 49.4585 29.9682 49.8106 29.6527 50.1662C29.3373 50.5213 29.026 50.8787 28.7151 51.2351C28.6178 51.3463 28.5226 51.4586 28.4274 51.5687C28.2094 51.8206 27.9936 52.0722 27.7776 52.324C27.6725 52.4471 27.5687 52.5704 27.4645 52.6924C27.2454 52.9507 27.027 53.21 26.8113 53.4685C26.724 53.5731 26.6364 53.6776 26.5492 53.7821C26.2515 54.1406 25.9558 54.4981 25.6625 54.8589C25.6218 54.9093 25.5806 54.9592 25.5386 55.0094C25.2863 55.3211 25.0359 55.6306 24.787 55.9422C24.6907 56.0609 24.5966 56.1819 24.5003 56.3009C24.4493 56.366 24.3994 56.4303 24.3477 56.4949C24.4184 56.5667 24.4891 56.6388 24.56 56.7106C24.8391 56.9951 25.118 57.2804 25.3958 57.5695C25.4379 57.6132 25.4799 57.6555 25.5221 57.6991C25.8409 58.0305 26.1586 58.3653 26.4774 58.703C26.5692 58.8012 26.662 58.899 26.7541 58.9984C26.9835 59.2415 27.2123 59.4878 27.4424 59.7351C27.5509 59.8518 27.6597 59.9694 27.7677 60.087C27.9925 60.3311 28.2161 60.5765 28.4398 60.823C28.5383 60.9319 28.6346 61.0375 28.7329 61.1454C29.0483 61.4966 29.3649 61.8484 29.6795 62.2039C29.996 62.5591 30.3062 62.9157 30.6171 63.272C30.7133 63.3843 30.8107 63.4966 30.9082 63.6089C31.1239 63.8597 31.34 64.1092 31.5534 64.361C31.6595 64.4841 31.7649 64.6084 31.87 64.7329C32.0868 64.9888 32.3028 65.2461 32.5186 65.5022C32.6082 65.6088 32.6955 65.7159 32.7842 65.8215C33.0818 66.1792 33.3776 66.5366 33.6684 66.8953C33.7138 66.9496 34.9551 68.731 35.0002 68.7864C34.7544 68.4792 35.2495 69.0917 35.0002 68.7864C34.9029 68.6644 35.0985 68.9084 35.0002 68.7864C34.9458 68.7179 35.0546 68.8552 35.0002 68.7864C34.9448 68.8548 35.0534 68.7179 35.0002 68.7864C35.0965 68.6644 34.918 68.8877 35.0153 68.7666C35.2624 68.4582 34.6357 69.2339 34.8858 68.9265C34.929 68.8731 34.9719 68.8199 35.0153 68.7666C35.3077 68.408 36.9174 66.1789 37.215 65.8212C37.3037 65.7156 37.3921 65.6088 37.4808 65.5019C37.6978 65.2459 37.9126 64.9885 38.1306 64.7326C38.2345 64.6084 38.3409 64.4838 38.4471 64.3607C38.661 64.1089 38.8754 63.8594 39.0924 63.6088C39.1887 63.4963 39.2862 63.384 39.3821 63.2717C39.6931 62.9154 40.0057 62.5591 40.3197 62.2036C40.6343 61.8484 40.9505 61.4963 41.2671 61.1453C41.3648 61.0374 41.462 60.9316 41.5595 60.8227C41.7831 60.5762 42.0078 60.3311 42.2314 60.0867C42.3398 59.9691 42.4505 59.8513 42.558 59.7348C42.7874 59.4875 43.0162 59.2411 43.2455 58.9981C43.3384 58.8989 43.4302 58.8009 43.5221 58.7027C43.8409 58.365 44.16 58.0304 44.4785 57.699C44.5193 57.6552 44.5615 57.613 44.6025 57.5692C44.8826 57.2806 45.1603 56.9948 45.4394 56.7103C45.5103 56.6385 45.5825 56.5665 45.652 56.4947C45.6034 56.4325 45.5554 56.3699 45.5055 56.3086Z" fill="#7DD5F7"/>
<path d="M91.016 59.5V47.98H100.808V59.5H100.232V48.532H91.592V59.5H91.016ZM104.004 53.74C104.004 49.9 106.836 47.74 109.932 47.74C113.052 47.74 115.86 49.9 115.86 53.74C115.86 57.58 113.052 59.74 109.932 59.74C106.836 59.74 104.004 57.58 104.004 53.74ZM115.284 53.74C115.284 50.26 112.788 48.292 109.932 48.292C107.076 48.292 104.58 50.26 104.58 53.74C104.58 57.22 107.076 59.188 109.932 59.188C112.788 59.188 115.284 57.22 115.284 53.74ZM121.389 48.532C121.149 55.516 120.141 59.644 117.573 59.644C117.261 59.644 116.949 59.596 116.589 59.476V58.972C116.901 59.092 117.165 59.116 117.453 59.116C119.661 59.116 120.597 55.108 120.813 47.98H128.421V59.5H127.845V48.532H121.389ZM132.454 59.5V47.98H133.03V58.612L141.886 47.98H142.438V59.5H141.862V48.868L133.006 59.5H132.454ZM149.565 59.5V48.532H144.789V47.98H154.941V48.532H150.141V59.5H149.565ZM155.66 53.74C155.66 49.876 158.42 47.74 161.276 47.74C165.524 47.74 166.844 51.364 166.412 54.076H156.236C156.332 57.724 159.068 59.212 161.996 59.212C163.316 59.212 164.732 58.876 165.716 58.3V58.876C164.732 59.452 163.316 59.74 161.924 59.74C158.66 59.74 155.66 57.964 155.66 53.74ZM165.908 53.548C166.124 51.316 164.996 48.268 161.3 48.268C158.684 48.268 156.308 50.116 156.236 53.548H165.908ZM178.177 47.98L173.425 53.596L178.441 59.5H177.745L173.065 54.004L168.385 59.5H167.689L172.729 53.596L167.953 47.98H168.649L173.065 53.164L177.505 47.98H178.177Z" fill="black"/>
</svg>
